<svg width="32" height="32" viewBox="0 0 32 32" fill="none" xmlns="http://www.w3.org/2000/svg">
<g clip-path="url(#clip0_4_440)">
<path d="M30.8267 13.2133L25.6667 7.99999C25.5427 7.87502 25.3952 7.77582 25.2328 7.70813C25.0703 7.64044 24.896 7.60559 24.72 7.60559C24.544 7.60559 24.3697 7.64044 24.2072 7.70813C24.0448 7.77582 23.8973 7.87502 23.7733 7.99999C23.525 8.24981 23.3856 8.58774 23.3856 8.93999C23.3856 9.29224 23.525 9.63017 23.7733 9.87999L28.52 14.6667H1.33333C0.979711 14.6667 0.640573 14.8071 0.390524 15.0572C0.140476 15.3072 0 15.6464 0 16H0C0 16.3536 0.140476 16.6927 0.390524 16.9428C0.640573 17.1928 0.979711 17.3333 1.33333 17.3333H28.6L23.7733 22.1467C23.6484 22.2706 23.5492 22.4181 23.4815 22.5806C23.4138 22.743 23.3789 22.9173 23.3789 23.0933C23.3789 23.2693 23.4138 23.4436 23.4815 23.6061C23.5492 23.7686 23.6484 23.916 23.7733 24.04C23.8973 24.165 24.0448 24.2642 24.2072 24.3318C24.3697 24.3995 24.544 24.4344 24.72 24.4344C24.896 24.4344 25.0703 24.3995 25.2328 24.3318C25.3952 24.2642 25.5427 24.165 25.6667 24.04L30.8267 18.8667C31.5757 18.1167 31.9965 17.1 31.9965 16.04C31.9965 14.98 31.5757 13.9633 30.8267 13.2133Z" fill="#33ADFF"/>
</g>
<defs>
<clipPath id="clip0_4_440">
<rect width="32" height="32" fill="white"/>
</clipPath>
</defs>
</svg>
