<svg width="22" height="17" viewBox="0 0 22 17" fill="none" xmlns="http://www.w3.org/2000/svg">
<g filter="url(#filter0_ddd_77_66)">
<path d="M17.7098 1.21C17.6169 1.11627 17.5063 1.04187 17.3844 0.991106C17.2625 0.940338 17.1318 0.9142 16.9998 0.9142C16.8678 0.9142 16.7371 0.940338 16.6152 0.991106C16.4934 1.04187 16.3828 1.11627 16.2898 1.21L11.7098 5.78999C11.6169 5.88372 11.5063 5.95811 11.3844 6.00888C11.2625 6.05965 11.1318 6.08579 10.9998 6.08579C10.8678 6.08579 10.7371 6.05965 10.6152 6.00888C10.4934 5.95811 10.3828 5.88372 10.2898 5.78999L5.70982 1.21C5.61685 1.11627 5.50625 1.04187 5.38439 0.991106C5.26253 0.940338 5.13183 0.9142 4.99982 0.9142C4.8678 0.9142 4.7371 0.940338 4.61524 0.991106C4.49338 1.04187 4.38278 1.11627 4.28982 1.21C4.10356 1.39736 3.99902 1.65081 3.99902 1.915C3.99902 2.17918 4.10356 2.43263 4.28982 2.61999L8.87982 7.20999C9.44232 7.77179 10.2048 8.08734 10.9998 8.08734C11.7948 8.08734 12.5573 7.77179 13.1198 7.20999L17.7098 2.61999C17.8961 2.43263 18.0006 2.17918 18.0006 1.915C18.0006 1.65081 17.8961 1.39736 17.7098 1.21Z" fill="black"/>
</g>
<defs>
<filter id="filter0_ddd_77_66" x="-0.000976562" y="0.9142" width="22.0015" height="15.1731" filterUnits="userSpaceOnUse" color-interpolation-filters="sRGB">
<feFlood flood-opacity="0" result="BackgroundImageFix"/>
<feColorMatrix in="SourceAlpha" type="matrix" values="0 0 0 0 0 0 0 0 0 0 0 0 0 0 0 0 0 0 127 0" result="hardAlpha"/>
<feOffset dy="4"/>
<feGaussianBlur stdDeviation="2"/>
<feComposite in2="hardAlpha" operator="out"/>
<feColorMatrix type="matrix" values="0 0 0 0 0 0 0 0 0 0 0 0 0 0 0 0 0 0 0.25 0"/>
<feBlend mode="normal" in2="BackgroundImageFix" result="effect1_dropShadow_77_66"/>
<feColorMatrix in="SourceAlpha" type="matrix" values="0 0 0 0 0 0 0 0 0 0 0 0 0 0 0 0 0 0 127 0" result="hardAlpha"/>
<feOffset dy="4"/>
<feGaussianBlur stdDeviation="2"/>
<feComposite in2="hardAlpha" operator="out"/>
<feColorMatrix type="matrix" values="0 0 0 0 0 0 0 0 0 0 0 0 0 0 0 0 0 0 0.25 0"/>
<feBlend mode="normal" in2="effect1_dropShadow_77_66" result="effect2_dropShadow_77_66"/>
<feColorMatrix in="SourceAlpha" type="matrix" values="0 0 0 0 0 0 0 0 0 0 0 0 0 0 0 0 0 0 127 0" result="hardAlpha"/>
<feOffset dy="4"/>
<feGaussianBlur stdDeviation="2"/>
<feComposite in2="hardAlpha" operator="out"/>
<feColorMatrix type="matrix" values="0 0 0 0 0 0 0 0 0 0 0 0 0 0 0 0 0 0 0.25 0"/>
<feBlend mode="normal" in2="effect2_dropShadow_77_66" result="effect3_dropShadow_77_66"/>
<feBlend mode="normal" in="SourceGraphic" in2="effect3_dropShadow_77_66" result="shape"/>
</filter>
</defs>
</svg>
