<svg width="404" height="404" viewBox="0 0 404 404" fill="none" xmlns="http://www.w3.org/2000/svg">
<g clip-path="url(#clip0_32_11)">
<line x1="496.242" y1="-190.431" x2="-145.758" y2="298.569" stroke="#FF7B00" stroke-width="14"/>
<line x1="463.242" y1="-200.431" x2="-178.758" y2="288.569" stroke="#FF7B00" stroke-width="14"/>
<line x1="463.242" y1="-239.431" x2="-178.758" y2="249.569" stroke="#FF7B00" stroke-width="14"/>
<line x1="463.242" y1="-275.431" x2="-178.758" y2="213.569" stroke="#FF7B00" stroke-width="14"/>
<line x1="463.242" y1="-314.431" x2="-178.758" y2="174.569" stroke="#FF7B00" stroke-width="14"/>
<line x1="463.242" y1="-355.431" x2="-178.758" y2="133.569" stroke="#FF7B00" stroke-width="14"/>
<line x1="463.242" y1="-396.431" x2="-178.758" y2="92.5686" stroke="#FF7B00" stroke-width="14"/>
<line x1="463.242" y1="-435.431" x2="-178.758" y2="53.5686" stroke="#FF7B00" stroke-width="14"/>
<line x1="463.242" y1="-476.431" x2="-178.758" y2="12.5686" stroke="#FF7B00" stroke-width="14"/>
<line x1="496.242" y1="-151.431" x2="-145.758" y2="337.569" stroke="#FF7B00" stroke-width="14"/>
<line x1="496.242" y1="-110.431" x2="-145.758" y2="378.569" stroke="#FF7B00" stroke-width="14"/>
<line x1="496.242" y1="-69.4314" x2="-145.758" y2="419.569" stroke="#FF7B00" stroke-width="14"/>
<line x1="496.242" y1="-30.4314" x2="-145.758" y2="458.569" stroke="#FF7B00" stroke-width="14"/>
<line x1="496.242" y1="12.5686" x2="-145.758" y2="501.569" stroke="#FF7B00" stroke-width="14"/>
<line x1="496.242" y1="53.5686" x2="-145.758" y2="542.569" stroke="#FF7B00" stroke-width="14"/>
<line x1="496.242" y1="92.5686" x2="-145.758" y2="581.569" stroke="#FF7B00" stroke-width="14"/>
<line x1="496.242" y1="133.569" x2="-145.758" y2="622.569" stroke="#FF7B00" stroke-width="14"/>
<line x1="496.242" y1="169.569" x2="-145.758" y2="658.569" stroke="#FF7B00" stroke-width="14"/>
</g>
<defs>
<clipPath id="clip0_32_11">
<rect x="404" y="404" width="404" height="404" rx="202" transform="rotate(-180 404 404)" fill="white"/>
</clipPath>
</defs>
</svg>
