<svg xmlns="http://www.w3.org/2000/svg" width="24" height="25" viewBox="0 0 24 25" fill="none">
  <g clip-path="url(#clip0_394_132)">
    <path d="M23.12 10.4099L19.25 6.4999C19.157 6.40617 19.0464 6.33178 18.9246 6.28101C18.8027 6.23024 18.672 6.2041 18.54 6.2041C18.408 6.2041 18.2773 6.23024 18.1554 6.28101C18.0336 6.33178 17.923 6.40617 17.83 6.4999C17.6437 6.68726 17.5392 6.94071 17.5392 7.2049C17.5392 7.46909 17.6437 7.72254 17.83 7.9099L21.39 11.4999H1C0.734784 11.4999 0.48043 11.6053 0.292893 11.7928C0.105357 11.9803 0 12.2347 0 12.4999H0C0 12.7651 0.105357 13.0195 0.292893 13.207C0.48043 13.3945 0.734784 13.4999 1 13.4999H21.45L17.83 17.1099C17.7363 17.2029 17.6619 17.3135 17.6111 17.4353C17.5603 17.5572 17.5342 17.6879 17.5342 17.8199C17.5342 17.9519 17.5603 18.0826 17.6111 18.2045C17.6619 18.3263 17.7363 18.4369 17.83 18.5299C17.923 18.6236 18.0336 18.698 18.1554 18.7488C18.2773 18.7996 18.408 18.8257 18.54 18.8257C18.672 18.8257 18.8027 18.7996 18.9246 18.7488C19.0464 18.698 19.157 18.6236 19.25 18.5299L23.12 14.6499C23.6818 14.0874 23.9974 13.3249 23.9974 12.5299C23.9974 11.7349 23.6818 10.9724 23.12 10.4099Z" fill="#33ADFF"/>
  </g>
  <defs>
    <clipPath id="clip0_394_132">
      <rect width="24" height="24" fill="white" transform="translate(0 0.5)"/>
    </clipPath>
  </defs>
</svg>