<svg width="27" height="25" viewBox="0 0 27 25" fill="none" xmlns="http://www.w3.org/2000/svg">
<g clip-path="url(#clip0_4_267)">
<path d="M25.6085 10.731L20.0397 5.78101L18.4501 7.19901L23.2876 11.499H7.44421V13.499H23.2876L18.4501 17.799L20.0408 19.213L25.6096 14.263C25.8708 14.0309 26.0781 13.7552 26.2195 13.4519C26.3608 13.1485 26.4336 12.8234 26.4336 12.495C26.4336 12.1666 26.3608 11.8415 26.2195 11.5381C26.0781 11.2348 25.8708 10.9592 25.6096 10.727L25.6085 10.731Z" fill="#33ADFF"/>
<path d="M11.7855 21.5C11.7855 21.7652 11.667 22.0196 11.456 22.2071C11.245 22.3946 10.9589 22.5 10.6605 22.5H3.375C3.07663 22.5 2.79048 22.3946 2.5795 22.2071C2.36853 22.0196 2.25 21.7652 2.25 21.5V3.5C2.25 3.23478 2.36853 2.98043 2.5795 2.79289C2.79048 2.60536 3.07663 2.5 3.375 2.5H10.6605C10.9589 2.5 11.245 2.60536 11.456 2.79289C11.667 2.98043 11.7855 3.23478 11.7855 3.5V8.833H14.0355V3.5C14.0355 2.70435 13.6799 1.94129 13.047 1.37868C12.4141 0.81607 11.5556 0.5 10.6605 0.5L3.375 0.5C2.47989 0.5 1.62145 0.81607 0.988515 1.37868C0.355579 1.94129 0 2.70435 0 3.5L0 21.5C0 22.2956 0.355579 23.0587 0.988515 23.6213C1.62145 24.1839 2.47989 24.5 3.375 24.5H10.6605C11.5556 24.5 12.4141 24.1839 13.047 23.6213C13.6799 23.0587 14.0355 22.2956 14.0355 21.5V16.167H11.7855V21.5Z" fill="#33ADFF"/>
</g>
<defs>
<clipPath id="clip0_4_267">
<rect width="27" height="24" fill="white" transform="translate(0 0.5)"/>
</clipPath>
</defs>
</svg>
