<svg width="29" height="29" viewBox="0 0 29 29" fill="none" xmlns="http://www.w3.org/2000/svg">
<g clip-path="url(#clip0_4_166)">
<path d="M28.6456 26.9382L21.433 19.7257C23.3985 17.3218 24.3649 14.2544 24.1323 11.1581C23.8996 8.06166 22.4858 5.17314 20.1831 3.08996C17.8805 1.00679 14.8652 -0.11167 11.7611 -0.0340566C8.65695 0.0435569 5.70138 1.3113 3.50573 3.50695C1.31008 5.7026 0.0423362 8.65817 -0.0352773 11.7623C-0.112891 14.8665 1.00556 17.8817 3.08874 20.1843C5.17192 22.487 8.06044 23.9008 11.1568 24.1335C14.2532 24.3661 17.3206 23.3998 19.7245 21.4343L26.937 28.6468C27.1649 28.8669 27.4701 28.9887 27.7869 28.9859C28.1038 28.9832 28.4068 28.8561 28.6309 28.6321C28.8549 28.408 28.982 28.105 28.9847 27.7882C28.9875 27.4713 28.8657 27.1661 28.6456 26.9382ZM12.0829 21.7508C10.1711 21.7508 8.30211 21.1839 6.71244 20.1217C5.12276 19.0595 3.88376 17.5498 3.15211 15.7834C2.42046 14.0171 2.22903 12.0734 2.60202 10.1983C2.97501 8.32315 3.89567 6.60071 5.24758 5.2488C6.59949 3.8969 8.32193 2.97623 10.1971 2.60324C12.0722 2.23025 14.0159 2.42169 15.7822 3.15333C17.5486 3.88498 19.0583 5.12398 20.1205 6.71366C21.1827 8.30333 21.7496 10.1723 21.7496 12.0842C21.7467 14.647 20.7274 17.1041 18.9151 18.9164C17.1029 20.7286 14.6458 21.748 12.0829 21.7508Z" fill="#33ADFF"/>
</g>
<defs>
<clipPath id="clip0_4_166">
<rect width="29" height="29" fill="white"/>
</clipPath>
</defs>
</svg>
