<svg width="58" height="870" viewBox="0 0 58 870" fill="none" xmlns="http://www.w3.org/2000/svg">
<g clip-path="url(#clip0_124_790)">
<line x1="150.242" y1="275.569" x2="-491.758" y2="764.569" stroke="#FF7B00" stroke-width="14"/>
<line x1="117.242" y1="265.569" x2="-524.758" y2="754.569" stroke="#FF7B00" stroke-width="14"/>
<line x1="117.242" y1="226.569" x2="-524.758" y2="715.569" stroke="#FF7B00" stroke-width="14"/>
<line x1="117.242" y1="190.569" x2="-524.758" y2="679.569" stroke="#FF7B00" stroke-width="14"/>
<line x1="117.242" y1="151.569" x2="-524.758" y2="640.569" stroke="#FF7B00" stroke-width="14"/>
<line x1="117.242" y1="110.569" x2="-524.758" y2="599.569" stroke="#FF7B00" stroke-width="14"/>
<line x1="117.242" y1="69.5686" x2="-524.758" y2="558.569" stroke="#FF7B00" stroke-width="14"/>
<line x1="117.242" y1="30.5686" x2="-524.758" y2="519.569" stroke="#FF7B00" stroke-width="14"/>
<line x1="117.242" y1="-10.4314" x2="-524.758" y2="478.569" stroke="#FF7B00" stroke-width="14"/>
<line x1="150.242" y1="314.569" x2="-491.758" y2="803.569" stroke="#FF7B00" stroke-width="14"/>
<line x1="150.242" y1="355.569" x2="-491.758" y2="844.569" stroke="#FF7B00" stroke-width="14"/>
<line x1="150.242" y1="396.569" x2="-491.758" y2="885.569" stroke="#FF7B00" stroke-width="14"/>
<line x1="150.242" y1="435.569" x2="-491.758" y2="924.569" stroke="#FF7B00" stroke-width="14"/>
<line x1="150.242" y1="478.569" x2="-491.758" y2="967.569" stroke="#FF7B00" stroke-width="14"/>
<line x1="150.242" y1="519.569" x2="-491.758" y2="1008.57" stroke="#FF7B00" stroke-width="14"/>
<line x1="150.242" y1="558.569" x2="-491.758" y2="1047.57" stroke="#FF7B00" stroke-width="14"/>
<line x1="150.242" y1="599.569" x2="-491.758" y2="1088.57" stroke="#FF7B00" stroke-width="14"/>
<line x1="150.242" y1="635.569" x2="-491.758" y2="1124.57" stroke="#FF7B00" stroke-width="14"/>
<line x1="150.242" y1="673.569" x2="-491.758" y2="1162.57" stroke="#FF7B00" stroke-width="14"/>
<line x1="150.242" y1="715.569" x2="-491.758" y2="1204.57" stroke="#FF7B00" stroke-width="14"/>
<line x1="150.242" y1="754.569" x2="-491.758" y2="1243.57" stroke="#FF7B00" stroke-width="14"/>
</g>
<defs>
<clipPath id="clip0_124_790">
<rect width="58.0001" height="870" fill="white" transform="translate(58 870) rotate(-180)"/>
</clipPath>
</defs>
</svg>
