<svg width="24" height="25" viewBox="0 0 24 25" fill="none" xmlns="http://www.w3.org/2000/svg">
<g clip-path="url(#clip0_72_10741)">
<path d="M7 6.50024H23C23.2652 6.50024 23.5196 6.39488 23.7071 6.20735C23.8946 6.01981 24 5.76546 24 5.50024C24 5.23503 23.8946 4.98067 23.7071 4.79314C23.5196 4.6056 23.2652 4.50024 23 4.50024H7C6.73478 4.50024 6.48043 4.6056 6.29289 4.79314C6.10536 4.98067 6 5.23503 6 5.50024C6 5.76546 6.10536 6.01981 6.29289 6.20735C6.48043 6.39488 6.73478 6.50024 7 6.50024Z" fill="#33ADFF"/>
<path d="M23 11.4998H7C6.73478 11.4998 6.48043 11.6051 6.29289 11.7927C6.10536 11.9802 6 12.2345 6 12.4998C6 12.765 6.10536 13.0193 6.29289 13.2069C6.48043 13.3944 6.73478 13.4998 7 13.4998H23C23.2652 13.4998 23.5196 13.3944 23.7071 13.2069C23.8946 13.0193 24 12.765 24 12.4998C24 12.2345 23.8946 11.9802 23.7071 11.7927C23.5196 11.6051 23.2652 11.4998 23 11.4998Z" fill="#33ADFF"/>
<path d="M23 18.5H7C6.73478 18.5 6.48043 18.6054 6.29289 18.7929C6.10536 18.9804 6 19.2348 6 19.5C6 19.7652 6.10536 20.0196 6.29289 20.2071C6.48043 20.3947 6.73478 20.5 7 20.5H23C23.2652 20.5 23.5196 20.3947 23.7071 20.2071C23.8946 20.0196 24 19.7652 24 19.5C24 19.2348 23.8946 18.9804 23.7071 18.7929C23.5196 18.6054 23.2652 18.5 23 18.5Z" fill="#33ADFF"/>
<path d="M2 7.49999C3.10457 7.49999 4 6.60456 4 5.5C4 4.39543 3.10457 3.5 2 3.5C0.89543 3.5 0 4.39543 0 5.5C0 6.60456 0.89543 7.49999 2 7.49999Z" fill="#33ADFF"/>
<path d="M2 14.5002C3.10457 14.5002 4 13.6048 4 12.5002C4 11.3957 3.10457 10.5002 2 10.5002C0.89543 10.5002 0 11.3957 0 12.5002C0 13.6048 0.89543 14.5002 2 14.5002Z" fill="#33ADFF"/>
<path d="M2 21.4996C3.10457 21.4996 4 20.6042 4 19.4996C4 18.3951 3.10457 17.4996 2 17.4996C0.89543 17.4996 0 18.3951 0 19.4996C0 20.6042 0.89543 21.4996 2 21.4996Z" fill="#33ADFF"/>
</g>
<defs>
<clipPath id="clip0_72_10741">
<rect width="24" height="24" fill="white" transform="translate(0 0.5)"/>
</clipPath>
</defs>
</svg>
