<svg xmlns="http://www.w3.org/2000/svg" width="29" height="29" viewBox="0 0 29 29" fill="none">
  <g clip-path="url(#clip0_394_124)">
    <path d="M28.6457 26.9382L21.4332 19.7257C23.3987 17.3218 24.365 14.2544 24.1324 11.1581C23.8997 8.06166 22.4859 5.17314 20.1832 3.08996C17.8806 1.00679 14.8654 -0.11167 11.7612 -0.0340566C8.65707 0.0435569 5.7015 1.3113 3.50585 3.50695C1.3102 5.7026 0.0424582 8.65817 -0.0351552 11.7623C-0.112769 14.8665 1.00569 17.8817 3.08887 20.1843C5.17205 22.487 8.06057 23.9008 11.157 24.1335C14.2533 24.3661 17.3207 23.3998 19.7246 21.4343L26.9371 28.6468C27.165 28.8669 27.4702 28.9887 27.7871 28.9859C28.1039 28.9832 28.4069 28.8561 28.631 28.6321C28.855 28.408 28.9821 28.105 28.9848 27.7882C28.9876 27.4713 28.8658 27.1661 28.6457 26.9382ZM12.0831 21.7508C10.1712 21.7508 8.30223 21.1839 6.71256 20.1217C5.12288 19.0595 3.88388 17.5498 3.15223 15.7834C2.42059 14.0171 2.22915 12.0734 2.60215 10.1983C2.97514 8.32315 3.8958 6.60071 5.2477 5.2488C6.59961 3.8969 8.32205 2.97623 10.1972 2.60324C12.0723 2.23025 14.016 2.42169 15.7823 3.15333C17.5487 3.88498 19.0584 5.12398 20.1206 6.71366C21.1828 8.30333 21.7497 10.1723 21.7497 12.0842C21.7469 14.647 20.7275 17.1041 18.9153 18.9164C17.103 20.7286 14.6459 21.748 12.0831 21.7508Z" fill="#33ADFF"/>
  </g>
  <defs>
    <clipPath id="clip0_394_124">
      <rect width="29" height="29" fill="white"/>
    </clipPath>
  </defs>
</svg>