<svg width="291" height="432" viewBox="0 0 291 432" fill="none" xmlns="http://www.w3.org/2000/svg">
<g clip-path="url(#clip0_32_40)">
<line x1="383.242" y1="-162.431" x2="-258.758" y2="326.569" stroke="#FF7B00" stroke-width="14"/>
<line x1="350.242" y1="-172.431" x2="-291.758" y2="316.569" stroke="#FF7B00" stroke-width="14"/>
<line x1="350.242" y1="-211.431" x2="-291.758" y2="277.569" stroke="#FF7B00" stroke-width="14"/>
<line x1="350.242" y1="-247.431" x2="-291.758" y2="241.569" stroke="#FF7B00" stroke-width="14"/>
<line x1="350.242" y1="-286.431" x2="-291.758" y2="202.569" stroke="#FF7B00" stroke-width="14"/>
<line x1="350.242" y1="-327.431" x2="-291.758" y2="161.569" stroke="#FF7B00" stroke-width="14"/>
<line x1="350.242" y1="-368.431" x2="-291.758" y2="120.569" stroke="#FF7B00" stroke-width="14"/>
<line x1="350.242" y1="-407.431" x2="-291.758" y2="81.5686" stroke="#FF7B00" stroke-width="14"/>
<line x1="350.242" y1="-448.431" x2="-291.758" y2="40.5686" stroke="#FF7B00" stroke-width="14"/>
<line x1="383.242" y1="-123.431" x2="-258.758" y2="365.569" stroke="#FF7B00" stroke-width="14"/>
<line x1="383.242" y1="-82.4314" x2="-258.758" y2="406.569" stroke="#FF7B00" stroke-width="14"/>
<line x1="383.242" y1="-41.4314" x2="-258.758" y2="447.569" stroke="#FF7B00" stroke-width="14"/>
<line x1="383.242" y1="-2.43138" x2="-258.758" y2="486.569" stroke="#FF7B00" stroke-width="14"/>
<line x1="383.242" y1="40.5686" x2="-258.758" y2="529.569" stroke="#FF7B00" stroke-width="14"/>
<line x1="383.242" y1="81.5686" x2="-258.758" y2="570.569" stroke="#FF7B00" stroke-width="14"/>
<line x1="383.242" y1="120.569" x2="-258.758" y2="609.569" stroke="#FF7B00" stroke-width="14"/>
<line x1="383.242" y1="161.569" x2="-258.758" y2="650.569" stroke="#FF7B00" stroke-width="14"/>
<line x1="383.242" y1="197.569" x2="-258.758" y2="686.569" stroke="#FF7B00" stroke-width="14"/>
<line x1="383.242" y1="235.569" x2="-258.758" y2="724.569" stroke="#FF7B00" stroke-width="14"/>
<line x1="383.242" y1="277.569" x2="-258.758" y2="766.569" stroke="#FF7B00" stroke-width="14"/>
<line x1="383.242" y1="316.569" x2="-258.758" y2="805.569" stroke="#FF7B00" stroke-width="14"/>
</g>
<defs>
<clipPath id="clip0_32_40">
<rect width="291" height="432" fill="white" transform="translate(291 432) rotate(-180)"/>
</clipPath>
</defs>
</svg>
