<svg width="27" height="27" viewBox="0 0 27 27" fill="none" xmlns="http://www.w3.org/2000/svg">
<g clip-path="url(#clip0_4_264)">
<path d="M23.625 27.0007H21.375V21.3274C21.3741 20.4454 21.0233 19.5997 20.3997 18.9761C19.776 18.3524 18.9304 18.0016 18.0484 18.0007H8.95162C8.06962 18.0016 7.224 18.3524 6.60033 18.9761C5.97666 19.5997 5.62589 20.4454 5.625 21.3274V27.0007H3.375V21.3274C3.37679 19.8489 3.9649 18.4315 5.01033 17.3861C6.05576 16.3406 7.47316 15.7525 8.95162 15.7507H18.0484C19.5268 15.7525 20.9442 16.3406 21.9897 17.3861C23.0351 18.4315 23.6232 19.8489 23.625 21.3274V27.0007Z" fill="#33ADFF"/>
<path d="M13.4999 13.5C12.1649 13.5 10.8598 13.1041 9.74978 12.3624C8.63975 11.6207 7.77459 10.5665 7.26369 9.33312C6.7528 8.09972 6.61913 6.74252 6.87958 5.43314C7.14003 4.12377 7.78291 2.92104 8.72691 1.97703C9.67092 1.03303 10.8737 0.390153 12.183 0.129702C13.4924 -0.130748 14.8496 0.00292468 16.083 0.513816C17.3164 1.02471 18.3706 1.88987 19.1123 2.9999C19.854 4.10994 20.2499 5.41498 20.2499 6.75C20.2481 8.53967 19.5364 10.2555 18.2709 11.521C17.0054 12.7865 15.2895 13.4982 13.4999 13.5V13.5ZM13.4999 2.25C12.6099 2.25 11.7398 2.51392 10.9998 3.00839C10.2598 3.50286 9.68302 4.20566 9.34242 5.02793C9.00183 5.8502 8.91271 6.755 9.08635 7.62791C9.25998 8.50082 9.68856 9.30265 10.3179 9.93198C10.9472 10.5613 11.7491 10.9899 12.622 11.1635C13.4949 11.3372 14.3997 11.2481 15.222 10.9075C16.0442 10.5669 16.747 9.99009 17.2415 9.25007C17.736 8.51005 17.9999 7.64002 17.9999 6.75C17.9999 5.55653 17.5258 4.41194 16.6819 3.56802C15.8379 2.72411 14.6934 2.25 13.4999 2.25Z" fill="#33ADFF"/>
</g>
<defs>
<clipPath id="clip0_4_264">
<rect width="27" height="27" fill="white"/>
</clipPath>
</defs>
</svg>
